<svg width="69" height="69" viewBox="0 0 69 69" fill="none" xmlns="http://www.w3.org/2000/svg">
<path d="M34.5 69C53.5538 69 69 53.5538 69 34.5C69 15.4462 53.5538 0 34.5 0C15.4462 0 0 15.4462 0 34.5C0 53.5538 15.4462 69 34.5 69Z" fill="white"/>
<path d="M34.5 69C53.5538 69 69 53.5538 69 34.5C69 15.4462 53.5538 0 34.5 0C15.4462 0 0 15.4462 0 34.5C0 53.5538 15.4462 69 34.5 69Z" fill="black"/>
<path d="M16.9554 19.1816L25.9713 44.1058H26.058L35.4207 19.1816H46.2764C47.6057 19.1816 48.841 19.3403 49.9825 19.6576C51.1239 19.9749 52.1064 20.4437 52.93 21.0639C53.7536 21.6842 54.4038 22.4775 54.8806 23.4439C55.3574 24.4102 55.5958 25.5425 55.5958 26.8406C55.5958 28.6003 55.1045 30.0355 54.122 31.1461C53.1395 32.2568 51.868 33.0717 50.3076 33.5909V33.6775C51.2323 33.7352 52.0992 33.9732 52.9083 34.3915C53.7175 34.8098 54.4182 35.3578 55.0106 36.0358C55.603 36.7137 56.0726 37.4998 56.4193 38.394C56.7661 39.2883 56.9395 40.2547 56.9395 41.2932C56.9395 42.6779 56.6577 43.8967 56.0942 44.9496C55.5308 46.0026 54.7578 46.8896 53.7752 47.6108C52.7927 48.332 51.6513 48.8801 50.3509 49.2551C49.0505 49.6301 47.649 49.8176 46.1464 49.8176H35.6133L35.6132 43.1506H39.7745L39.7745 46.1829H45.8863C46.5221 46.1829 47.2228 46.118 47.9886 45.9881C48.7544 45.8583 49.4696 45.5987 50.1342 45.2093C50.7988 44.8198 51.3623 44.2934 51.8247 43.6299C52.287 42.9664 52.5182 42.0865 52.5182 40.9903C52.5182 39.1729 51.9258 37.8099 50.741 36.9012C49.5562 35.9925 47.9525 35.5381 45.9297 35.5381L39.7862 35.5381L39.7832 31.9033L45.4529 31.9034C46.2331 31.9034 46.9699 31.824 47.6635 31.6654C48.357 31.5067 48.9639 31.2399 49.484 30.8649C50.0042 30.4898 50.4159 30.0139 50.7194 29.4369C51.0228 28.86 51.1745 28.1532 51.1745 27.3166C51.1745 26.105 50.7844 25.0521 50.0042 24.1578C49.2239 23.2636 47.9958 22.8164 46.3198 22.8164L39.7755 22.8163L39.7755 22.8138H38.4492L35.6027 30.245L35.6026 30.2503L27.8785 49.8176H23.9774L12.144 19.1816H16.9554Z" fill="white"/>
</svg>
